<svg width="645" height="798" viewBox="0 0 645 798" fill="none" xmlns="http://www.w3.org/2000/svg">
<path opacity="0.23" d="M573.2 366.1C573.2 356.8 580.8 349.2 590.1 349.2H592.4V307.6H575.2C559.9 307.6 547.5 320 547.5 335.3V390.8C547.5 393.1 549.4 395 551.7 395H569.2C571.5 395 573.4 393.1 573.4 390.8V366.1H573.2Z" fill="black"/>
<path opacity="0.23" d="M605.7 315.5H592.4V343H605.7V315.5Z" fill="black"/>
<path opacity="0.23" d="M617.7 356.9H611.6C608.3 356.9 605.6 354.2 605.6 350.9V307.5C605.6 304.2 608.3 301.5 611.6 301.5H617.7C630.8 301.5 641.4 312.1 641.4 325.2V333.1C641.4 346.3 630.8 356.9 617.7 356.9Z" fill="black"/>
<path opacity="0.21" d="M350.2 733.2C350.2 742.5 357.8 750.1 367.1 750.1H369.4V791.7H352.2C336.9 791.7 324.5 779.3 324.5 764V708.5C324.5 706.2 326.4 704.3 328.7 704.3H346.2C348.5 704.3 350.4 706.2 350.4 708.5V733.2H350.2Z" fill="black"/>
<path opacity="0.21" d="M382.7 756.3H369.4V783.8H382.7V756.3Z" fill="black"/>
<path opacity="0.21" d="M394.7 742.4H388.6C385.3 742.4 382.6 745.1 382.6 748.4V791.8C382.6 795.1 385.3 797.8 388.6 797.8H394.7C407.8 797.8 418.4 787.2 418.4 774.1V766.2C418.4 753 407.8 742.4 394.7 742.4Z" fill="black"/>
<g opacity="0.23">
<path opacity="0.23" d="M340 711H334V632.3C334 600.7 359.7 575 391.3 575C405 575 417.9 569.6 427.6 559.9C437.3 550.2 442.6 537.3 442.6 523.5L442.5 486.7H448.5L448.6 523.5C448.6 538.8 442.7 553.3 431.8 564.1C421.1 575 406.7 581 391.3 581C363 581 340 604 340 632.3V711Z" fill="black"/>
</g>
<g opacity="0.23">
<path opacity="0.23" d="M503.5 566.4C470.1 566.4 443 539.3 443 505.9V487.4C443 485.7 444.3 484.4 446 484.4C447.7 484.4 449 485.7 449 487.4V505.9C449 536 473.4 560.4 503.5 560.4C533.6 560.4 558 536 558 505.9V394.4C558 392.7 559.3 391.4 561 391.4C562.7 391.4 564 392.7 564 394.4V505.9C564 539.2 536.9 566.4 503.5 566.4Z" fill="black"/>
</g>
<path d="M340 700H334V621.3C334 589.7 359.7 564 391.3 564C405 564 417.9 558.6 427.6 548.9C437.3 539.2 442.6 526.3 442.6 512.5L442.5 452.7H448.5L448.6 512.5C448.6 527.8 442.7 542.3 431.8 553.1C421.1 564 406.7 570 391.3 570C363 570 340 593 340 621.3V700Z" fill="#EEF2F4"/>
<path d="M340 700H334V621.3C334 589.7 359.7 564 391.3 564C405 564 417.9 558.6 427.6 548.9C437.3 539.2 442.6 526.3 442.6 512.5L442.5 452.7H448.5L448.6 512.5C448.6 527.8 442.7 542.3 431.8 553.1C421.1 564 406.7 570 391.3 570C363 570 340 593 340 621.3V700Z" stroke="#4C005F" stroke-width="3" stroke-miterlimit="10" stroke-linecap="round" stroke-linejoin="round"/>
<path d="M503.5 555C470.1 555 443 527.9 443 494.5V453C443 451.3 444.3 450 446 450C447.7 450 449 451.3 449 453V494.5C449 524.6 473.4 549 503.5 549C533.6 549 558 524.6 558 494.5V383C558 381.3 559.3 380 561 380C562.7 380 564 381.3 564 383V494.5C564 527.9 536.9 555 503.5 555Z" fill="#EEF2F4"/>
<path d="M503.5 555C470.1 555 443 527.9 443 494.5V453C443 451.3 444.3 450 446 450C447.7 450 449 451.3 449 453V494.5C449 524.6 473.4 549 503.5 549C533.6 549 558 524.6 558 494.5V383C558 381.3 559.3 380 561 380C562.7 380 564 381.3 564 383V494.5C564 527.9 536.9 555 503.5 555Z" stroke="#4C005F" stroke-width="3" stroke-miterlimit="10" stroke-linecap="round" stroke-linejoin="round"/>
<g opacity="0.23">
<path opacity="0.23" d="M445.7 418.3C444 418.3 442.7 417 442.7 415.3V120C442.7 95.9 423.1 76.3 399 76.3C374.9 76.3 355.3 95.9 355.3 120V224.4C355.3 251.4 333.3 273.4 306.3 273.4H305C291.9 273.4 279.6 268.3 270.4 259.1C261.2 249.9 256 237.4 256 224.3V62C256 37.9 236.4 18.3 212.3 18.3C188.2 18.3 168.6 37.9 168.6 62V270.3C168.6 272 167.3 273.3 165.6 273.3C163.9 273.3 162.6 272 162.6 270.3V62C162.6 34.6 184.9 12.3 212.3 12.3C239.7 12.3 262 34.6 262 62V224.4C262 235.9 266.5 246.7 274.6 254.8C282.7 262.9 293.5 267.4 305 267.4H306.4C330.1 267.4 349.4 248.1 349.4 224.4V120C349.4 92.6 371.7 70.3 399.1 70.3C426.5 70.3 448.8 92.6 448.8 120V415.3C448.7 416.9 447.4 418.3 445.7 418.3Z" fill="black"/>
</g>
<path d="M446 407.6C444.3 407.6 443 406.3 443 404.6V109.3C443 85.2 423.4 65.6 399.3 65.6C375.2 65.6 355.6 85.2 355.6 109.3V213.7C355.6 240.7 333.6 262.7 306.6 262.7H305.2C292.1 262.7 279.8 257.6 270.6 248.4C261.4 239.2 256.3 226.9 256.3 213.8V51.3C256.3 27.2 236.7 7.60001 212.6 7.60001C188.5 7.60001 169 27.2 169 51.3V259.6C169 261.3 167.7 262.6 166 262.6C164.3 262.6 163 261.3 163 259.6V51.3C163 23.9 185.3 1.60001 212.7 1.60001C240.1 1.60001 262.4 23.9 262.4 51.3V213.7C262.4 225.2 266.9 236 275 244.1C283.1 252.2 293.9 256.7 305.4 256.7H306.8C330.5 256.7 349.8 237.4 349.8 213.7V109.3C349.8 81.9 372.1 59.6 399.5 59.6C426.9 59.6 449.2 81.9 449.2 109.3V404.6C449 406.3 447.7 407.6 446 407.6Z" fill="#EEF2F4"/>
<path d="M446 407.6C444.3 407.6 443 406.3 443 404.6V109.3C443 85.2 423.4 65.6 399.3 65.6C375.2 65.6 355.6 85.2 355.6 109.3V213.7C355.6 240.7 333.6 262.7 306.6 262.7H305.2C292.1 262.7 279.8 257.6 270.6 248.4C261.4 239.2 256.3 226.9 256.3 213.8V51.3C256.3 27.2 236.7 7.60001 212.6 7.60001C188.5 7.60001 169 27.2 169 51.3V259.6C169 261.3 167.7 262.6 166 262.6C164.3 262.6 163 261.3 163 259.6V51.3C163 23.9 185.3 1.60001 212.7 1.60001C240.1 1.60001 262.4 23.9 262.4 51.3V213.7C262.4 225.2 266.9 236 275 244.1C283.1 252.2 293.9 256.7 305.4 256.7H306.8C330.5 256.7 349.8 237.4 349.8 213.7V109.3C349.8 81.9 372.1 59.6 399.5 59.6C426.9 59.6 449.2 81.9 449.2 109.3V404.6C449 406.3 447.7 407.6 446 407.6Z" stroke="#4C005F" stroke-width="3" stroke-miterlimit="10" stroke-linecap="round" stroke-linejoin="round"/>
<path opacity="0.23" d="M184.8 256.3H160.4V288.6H184.8V256.3Z" fill="black"/>
<path d="M178.3 252.3H153.9V284.6H178.3V252.3Z" fill="#FDE1FF"/>
<path d="M178.3 252.3H153.9V265.3H178.3V252.3Z" fill="white"/>
<path d="M178.3 252.3H153.9V265.3H178.3V252.3Z" stroke="#4C005F" stroke-width="3" stroke-miterlimit="10" stroke-linecap="round" stroke-linejoin="round"/>
<path d="M178.3 252.3H153.9V284.6H178.3V252.3Z" stroke="#4C005F" stroke-width="6" stroke-miterlimit="10" stroke-linecap="round" stroke-linejoin="round"/>
<path opacity="0.23" d="M205.7 630.6H28.9C17.8 630.6 8.79999 621.6 8.79999 610.5V325C8.79999 313.9 17.8 304.9 28.9 304.9H205.7C216.8 304.9 225.8 313.9 225.8 325V610.4C225.8 621.6 216.8 630.6 205.7 630.6Z" fill="black"/>
<path d="M200 609.9H23.3C12.2 609.9 3.20001 600.9 3.20001 589.8V304.4C3.20001 293.3 12.2 284.3 23.3 284.3H200C211.1 284.3 220.1 293.3 220.1 304.4V589.8C220.1 600.9 211.1 609.9 200 609.9Z" fill="#EEF2F4"/>
<path d="M200 609.9H23.3C12.2 609.9 3.20001 600.9 3.20001 589.8V304.4C3.20001 293.3 12.2 284.3 23.3 284.3H200C211.1 284.3 220.1 293.3 220.1 304.4V589.8C220.1 600.9 211.1 609.9 200 609.9Z" fill="#EEF2F4"/>
<g opacity="0.76">
<g opacity="0.76">
<path opacity="0.76" d="M12.8 589.8V304.4C12.8 293.3 21.8 284.3 32.9 284.3H23.2C12.1 284.3 3.10001 293.3 3.10001 304.4V589.8C3.10001 600.9 12.1 609.9 23.2 609.9H32.9C21.8 609.9 12.8 600.9 12.8 589.8Z" fill="white"/>
</g>
</g>
<g opacity="0.1">
<g opacity="0.1">
<path opacity="0.1" d="M210.4 589.8V304.4C210.4 293.3 201.4 284.3 190.3 284.3H200C211.1 284.3 220.1 293.3 220.1 304.4V589.8C220.1 600.9 211.1 609.9 200 609.9H190.3C201.4 609.9 210.4 600.9 210.4 589.8Z" fill="black"/>
</g>
</g>
<g opacity="0.04">
<path opacity="0.04" d="M200 596.9H23.3C12.2 596.9 3.20001 587.9 3.20001 576.8V589.8C3.20001 600.9 12.2 609.9 23.3 609.9H200C211.1 609.9 220.1 600.9 220.1 589.8V576.8C220.1 587.9 211.1 596.9 200 596.9Z" fill="black"/>
</g>
<g opacity="0.38">
<path opacity="0.38" d="M200 297.3H23.3C12.2 297.3 3.20001 306.3 3.20001 317.4V304.4C3.20001 293.3 12.2 284.3 23.3 284.3H200C211.1 284.3 220.1 293.3 220.1 304.4V317.4C220.1 306.3 211.1 297.3 200 297.3Z" fill="white"/>
</g>
<path d="M200 609.9H23.3C12.2 609.9 3.20001 600.9 3.20001 589.8V304.4C3.20001 293.3 12.2 284.3 23.3 284.3H200C211.1 284.3 220.1 293.3 220.1 304.4V589.8C220.1 600.9 211.1 609.9 200 609.9Z" stroke="#4C005F" stroke-width="6" stroke-miterlimit="10"/>
<path d="M172.9 428.6H50.4C43.6 428.6 38 423.1 38 416.2V335.5C38 328.7 43.5 323.1 50.4 323.1H172.9C179.7 323.1 185.3 328.6 185.3 335.5V416.2C185.2 423.1 179.7 428.6 172.9 428.6Z" fill="#B296A3"/>
<path opacity="0.2" d="M38 371.2L86 323H80L38 365.2V371.2Z" fill="#EEF2F4"/>
<path opacity="0.2" d="M38 388.3L103.2 323H92.9L38 378.1V388.3Z" fill="#EEF2F4"/>
<path d="M172.9 428.6H50.4C43.6 428.6 38 423.1 38 416.2V335.5C38 328.7 43.5 323.1 50.4 323.1H172.9C179.7 323.1 185.3 328.6 185.3 335.5V416.2C185.2 423.1 179.7 428.6 172.9 428.6Z" stroke="#4C005F" stroke-width="3" stroke-miterlimit="10"/>
<path d="M350.2 720.2C350.2 729.5 357.8 737.1 367.1 737.1H369.4V778.7H352.2C336.9 778.7 324.5 766.3 324.5 751V695.5C324.5 693.2 326.4 691.3 328.7 691.3H346.2C348.5 691.3 350.4 693.2 350.4 695.5V720.2H350.2Z" fill="#EEF2F4"/>
<path opacity="0.1" d="M367.1 736.9C357.7 736.9 350 729.2 350 719.8V694.8C350 692.6 348.2 690.9 346.1 690.9H343V698.9V726.5C343 733.1 346.6 738.9 351.9 742C358.1 745.6 362 752.1 362 759.2V778.8H369V736.8H367.1V736.9Z" fill="black"/>
<path d="M350.2 720.2C350.2 729.5 357.8 737.1 367.1 737.1H369.4V778.7H352.2C336.9 778.7 324.5 766.3 324.5 751V695.5C324.5 693.2 326.4 691.3 328.7 691.3H346.2C348.5 691.3 350.4 693.2 350.4 695.5V720.2H350.2Z" stroke="#4C005F" stroke-width="6" stroke-miterlimit="10" stroke-linecap="round" stroke-linejoin="round"/>
<path d="M382.7 743.3H369.4V770.8H382.7V743.3Z" fill="#D6DADC"/>
<path d="M382.7 743.3H369.4V770.8H382.7V743.3Z" stroke="#4C005F" stroke-width="6" stroke-miterlimit="10" stroke-linecap="round" stroke-linejoin="round"/>
<path d="M394.7 729.4H388.6C385.3 729.4 382.6 732.1 382.6 735.4V778.8C382.6 782.1 385.3 784.8 388.6 784.8H394.7C407.8 784.8 418.4 774.2 418.4 761.1V753.2C418.4 740 407.8 729.4 394.7 729.4Z" stroke="#4C005F" stroke-width="6" stroke-miterlimit="10" stroke-linecap="round" stroke-linejoin="round"/>
<path d="M394.7 729.4H388.6C385.3 729.4 382.6 732.1 382.6 735.4V778.8C382.6 782.1 385.3 784.8 388.6 784.8H394.7C407.8 784.8 418.4 774.2 418.4 761.1V753.2C418.4 740 407.8 729.4 394.7 729.4Z" fill="#4C005F"/>
<path d="M350.2 720.2C350.2 729.5 357.8 737.1 367.1 737.1H369.4V778.7H352.2C336.9 778.7 324.5 766.3 324.5 751V695.5C324.5 693.2 326.4 691.3 328.7 691.3H346.2C348.5 691.3 350.4 693.2 350.4 695.5V720.2H350.2Z" fill="#EEF2F4"/>
<path opacity="0.1" d="M367.1 736.9C357.7 736.9 350 729.2 350 719.8V694.8C350 692.6 348.2 690.9 346.1 690.9H343V698.9V726.5C343 733.1 346.6 738.9 351.9 742C358.1 745.6 362 752.1 362 759.2V778.8H369V736.8H367.1V736.9Z" fill="black"/>
<path d="M350.2 720.2C350.2 729.5 357.8 737.1 367.1 737.1H369.4V778.7H352.2C336.9 778.7 324.5 766.3 324.5 751V695.5C324.5 693.2 326.4 691.3 328.7 691.3H346.2C348.5 691.3 350.4 693.2 350.4 695.5V720.2H350.2Z" stroke="#4C005F" stroke-width="6" stroke-miterlimit="10" stroke-linecap="round" stroke-linejoin="round"/>
<path d="M382.7 743.3H369.4V770.8H382.7V743.3Z" fill="#D6DADC"/>
<path d="M382.7 743.3H369.4V770.8H382.7V743.3Z" stroke="#4C005F" stroke-width="6" stroke-miterlimit="10" stroke-linecap="round" stroke-linejoin="round"/>
<path d="M394.7 729.4H388.6C385.3 729.4 382.6 732.1 382.6 735.4V778.8C382.6 782.1 385.3 784.8 388.6 784.8H394.7C407.8 784.8 418.4 774.2 418.4 761.1V753.2C418.4 740 407.8 729.4 394.7 729.4Z" stroke="#4C005F" stroke-width="6" stroke-miterlimit="10" stroke-linecap="round" stroke-linejoin="round"/>
<path d="M394.7 729.4H388.6C385.3 729.4 382.6 732.1 382.6 735.4V778.8C382.6 782.1 385.3 784.8 388.6 784.8H394.7C407.8 784.8 418.4 774.2 418.4 761.1V753.2C418.4 740 407.8 729.4 394.7 729.4Z" fill="#4C005F"/>
<path d="M573.2 354.1C573.2 344.8 580.8 337.2 590.1 337.2H592.4V295.6H575.2C559.9 295.6 547.5 308 547.5 323.3V378.8C547.5 381.1 549.4 383 551.7 383H569.2C571.5 383 573.4 381.1 573.4 378.8V354.1H573.2Z" fill="#EEF2F4"/>
<g opacity="0.1">
<path opacity="0.1" d="M567 357.7V381H569.1C571.4 381 573 379.1 573 376.8V352.1C573 348.8 573.9 345.7 575.6 343.1C570.5 346 567 351.4 567 357.7Z" fill="black"/>
<path opacity="0.1" d="M575.2 296C566.3 296 558.4 299.9 553.3 306.4C557.8 303.2 563.3 301 569.3 301C578.5 301 586 308.5 586 317.7V337.6C588 337.3 588.9 337 590.1 337H592V296H575.2V296Z" fill="black"/>
</g>
<path d="M573.2 354.1C573.2 344.8 580.8 337.2 590.1 337.2H592.4V295.6H575.2C559.9 295.6 547.5 308 547.5 323.3V378.8C547.5 381.1 549.4 383 551.7 383H569.2C571.5 383 573.4 381.1 573.4 378.8V354.1H573.2Z" stroke="#4C005F" stroke-width="6" stroke-miterlimit="10" stroke-linecap="round" stroke-linejoin="round"/>
<path d="M605.7 303.5H592.4V331H605.7V303.5Z" fill="#D6DADC"/>
<path d="M605.7 303.5H592.4V331H605.7V303.5Z" stroke="#4C005F" stroke-width="6" stroke-miterlimit="10" stroke-linecap="round" stroke-linejoin="round"/>
<path d="M617.7 344.9H611.6C608.3 344.9 605.6 342.2 605.6 338.9V295.5C605.6 292.2 608.3 289.5 611.6 289.5H617.7C630.8 289.5 641.4 300.1 641.4 313.2V321.1C641.4 334.3 630.8 344.9 617.7 344.9Z" stroke="#4C005F" stroke-width="6" stroke-miterlimit="10" stroke-linecap="round" stroke-linejoin="round"/>
<path d="M617.7 344.9H611.6C608.3 344.9 605.6 342.2 605.6 338.9V295.5C605.6 292.2 608.3 289.5 611.6 289.5H617.7C630.8 289.5 641.4 300.1 641.4 313.2V321.1C641.4 334.3 630.8 344.9 617.7 344.9Z" fill="#4C005F"/>
<path d="M111.8 566.8C142.176 566.8 166.8 542.176 166.8 511.8C166.8 481.424 142.176 456.8 111.8 456.8C81.4243 456.8 56.8 481.424 56.8 511.8C56.8 542.176 81.4243 566.8 111.8 566.8Z" fill="#D7F0F4"/>
<path opacity="0.63" d="M111.8 466.8C140.5 466.8 164 488.8 166.6 516.8C166.7 515.2 166.8 513.5 166.8 511.8C166.8 481.4 142.2 456.8 111.8 456.8C81.4 456.8 56.8 481.4 56.8 511.8C56.8 513.5 56.9 515.2 57 516.8C59.6 488.7 83.2 466.8 111.8 466.8Z" fill="#EEF2F4"/>
<path d="M111.8 528.8C121.189 528.8 128.8 521.189 128.8 511.8C128.8 502.411 121.189 494.8 111.8 494.8C102.411 494.8 94.8 502.411 94.8 511.8C94.8 521.189 102.411 528.8 111.8 528.8Z" fill="#EEF2F4"/>
<path d="M111.8 566.8C142.176 566.8 166.8 542.176 166.8 511.8C166.8 481.424 142.176 456.8 111.8 456.8C81.4243 456.8 56.8 481.424 56.8 511.8C56.8 542.176 81.4243 566.8 111.8 566.8Z" stroke="#4C005F" stroke-width="3" stroke-miterlimit="10"/>
<path d="M111.8 494.8C102.4 494.8 94.8 502.4 94.8 511.8C94.8 516.7 96.9 521.1 100.2 524.2C100.2 524.1 100.2 524 100.2 523.8C100.2 517.4 105.4 512.1 111.9 512.1C118.4 512.1 123.6 517.3 123.6 523.8C123.6 523.9 123.6 524 123.6 524.2C126.9 521.1 129 516.7 129 511.8C128.8 502.4 121.2 494.8 111.8 494.8Z" fill="#DBDCDD"/>
<path d="M111.8 528.8C121.189 528.8 128.8 521.189 128.8 511.8C128.8 502.411 121.189 494.8 111.8 494.8C102.411 494.8 94.8 502.411 94.8 511.8C94.8 521.189 102.411 528.8 111.8 528.8Z" stroke="#4C005F" stroke-width="3" stroke-miterlimit="10"/>
<path d="M103.7 480.4V476.4L102.2 480.4H101.5L100 476.4V480.4H98.4V474.3H100.6L101.9 477.7L103.2 474.3H105.4V480.4H103.7Z" fill="#4C005F"/>
<path d="M106.3 480.4V474.3H110.8V475.7H107.9V476.6H110.7V478H107.9V479H110.8V480.4H106.3V480.4Z" fill="#4C005F"/>
<path d="M115.8 480.4L113.2 476.9V480.4H111.6V474.3H113.2L115.7 477.6V474.3H117.3V480.4H115.8Z" fill="#4C005F"/>
<path d="M118.4 477.9V474.3H120V477.9C120 478.6 120.4 479.1 121.3 479.1C122.1 479.1 122.6 478.6 122.6 477.9V474.3H124.2V477.9C124.2 479.4 123.3 480.5 121.3 480.5C119.4 480.5 118.4 479.4 118.4 477.9Z" fill="#4C005F"/>
<path d="M144 507.8L150.1 511.3L144 514.8V507.8Z" fill="#4C005F"/>
<path d="M138 507.8L144.1 511.3L138 514.8V507.8Z" fill="#4C005F"/>
<path d="M151.459 515.022L151.459 508.322L150.159 508.322L150.159 515.022L151.459 515.022Z" fill="#4C005F"/>
<path d="M107 543.8L113.1 547.3L107 550.8V543.8Z" fill="#4C005F"/>
<path d="M114.251 550.883L114.251 544.183L112.951 544.183L112.951 550.883L114.251 550.883Z" fill="#4C005F"/>
<path d="M116.492 550.842L116.492 544.142L115.192 544.142L115.192 550.842L116.492 550.842Z" fill="#4C005F"/>
<path d="M79 507.8L72.9 511.3L79 514.8V507.8Z" fill="#4C005F"/>
<path d="M85 507.8L78.9 511.3L85 514.8V507.8Z" fill="#4C005F"/>
<path d="M73.2157 515.065L73.2157 508.365L71.9157 508.365L71.9157 515.065L73.2157 515.065Z" fill="#4C005F"/>
<path d="M453 402H438.5V452.5H453V402Z" fill="#EEF2F4"/>
<path d="M453 402H438.5V452.5H453V402Z" stroke="#4C005F" stroke-width="3" stroke-miterlimit="10" stroke-linecap="round" stroke-linejoin="round"/>
</svg>
