<svg width="869" height="363" viewBox="0 0 869 363" fill="none" xmlns="http://www.w3.org/2000/svg">
<path d="M298.2 3.58899H634.05C638.844 3.58899 643.441 5.49334 646.831 8.88306C650.221 12.2728 652.125 16.8702 652.125 21.664V221.589H280.125V21.664C280.125 16.8702 282.029 12.2728 285.419 8.88306C288.809 5.49334 293.406 3.58899 298.2 3.58899V3.58899Z" fill="#FFAA47"/>
<path opacity="0.13" d="M586.25 46.799H370.25C365.832 46.799 362.25 50.3807 362.25 54.799V202.799C362.25 207.217 365.832 210.799 370.25 210.799H586.25C590.668 210.799 594.25 207.217 594.25 202.799V54.799C594.25 50.3807 590.668 46.799 586.25 46.799Z" fill="black"/>
<path d="M577.458 39.255H361.458C357.04 39.255 353.458 42.8367 353.458 47.255V195.255C353.458 199.673 357.04 203.255 361.458 203.255H577.458C581.876 203.255 585.458 199.673 585.458 195.255V47.255C585.458 42.8367 581.876 39.255 577.458 39.255Z" fill="#519673"/>
<path d="M577.458 39.255H361.458C357.04 39.255 353.458 42.8367 353.458 47.255V195.255C353.458 199.673 357.04 203.255 361.458 203.255H577.458C581.876 203.255 585.458 199.673 585.458 195.255V47.255C585.458 42.8367 581.876 39.255 577.458 39.255Z" stroke="#2B2F38" stroke-width="4" stroke-linecap="round" stroke-linejoin="round"/>
<path d="M361.458 39.255H577.458C579.58 39.255 581.615 40.0979 583.115 41.5981C584.615 43.0984 585.458 45.1333 585.458 47.255V62.633H353.458V47.255C353.458 45.1333 354.301 43.0984 355.801 41.5981C357.301 40.0979 359.336 39.255 361.458 39.255Z" fill="#DEE2E2"/>
<path d="M361.458 39.255H577.458C579.58 39.255 581.615 40.0979 583.115 41.5981C584.615 43.0984 585.458 45.1333 585.458 47.255V62.633H353.458V47.255C353.458 45.1333 354.301 43.0984 355.801 41.5981C357.301 40.0979 359.336 39.255 361.458 39.255Z" stroke="#2B2F38" stroke-width="4" stroke-linecap="round" stroke-linejoin="round"/>
<path opacity="0.75" d="M315.2 3.58899H298.2C293.406 3.58899 288.809 5.49334 285.419 8.88306C282.029 12.2728 280.125 16.8702 280.125 21.664V221.589H297.125V21.664C297.125 16.8702 299.029 12.2728 302.419 8.88306C305.809 5.49334 310.406 3.58899 315.2 3.58899V3.58899Z" fill="#FEFFFB"/>
<path opacity="0.13" d="M634.05 3.58899H597.221C599.595 3.58833 601.946 4.0554 604.139 4.96347C606.333 5.87154 608.326 7.20285 610.005 8.88135C611.684 10.5598 613.015 12.5526 613.924 14.7459C614.833 16.9392 615.3 19.29 615.3 21.664V221.589H652.129V21.664C652.129 19.29 651.661 16.9393 650.753 14.7461C649.844 12.5528 648.512 10.5601 646.834 8.88162C645.155 7.20315 643.162 5.87183 640.968 4.96372C638.775 4.0556 636.424 3.58846 634.05 3.58899Z" fill="black"/>
<path d="M298.2 3.58899H634.05C638.844 3.58899 643.441 5.49334 646.831 8.88306C650.221 12.2728 652.125 16.8702 652.125 21.664V221.589H280.125V21.664C280.125 16.8702 282.029 12.2728 285.419 8.88306C288.809 5.49334 293.406 3.58899 298.2 3.58899V3.58899Z" stroke="#2B2F38" stroke-width="6" stroke-linecap="round" stroke-linejoin="round"/>
<path d="M280.125 221.68H652.125V263.907C652.125 269.682 649.831 275.22 645.748 279.303C641.665 283.386 636.127 285.68 630.352 285.68H301.9C296.125 285.68 290.587 283.386 286.504 279.303C282.421 275.22 280.127 269.682 280.127 263.907V221.68H280.125Z" fill="#F0E4E4"/>
<path opacity="0.13" d="M618.125 221.68V263.907C618.125 269.682 615.831 275.22 611.748 279.303C607.665 283.386 602.127 285.68 596.352 285.68H630.352C636.127 285.68 641.665 283.386 645.748 279.303C649.831 275.22 652.125 269.682 652.125 263.907V221.68H618.125Z" fill="black"/>
<path d="M630.352 278.68H301.9C296.125 278.68 290.587 276.386 286.504 272.303C282.421 268.22 280.127 262.682 280.127 256.907V263.907C280.127 269.682 282.421 275.22 286.504 279.303C290.587 283.386 296.125 285.68 301.9 285.68H630.352C636.127 285.68 641.665 283.386 645.748 279.303C649.831 275.22 652.125 269.682 652.125 263.907V256.907C652.125 262.682 649.831 268.22 645.748 272.303C641.665 276.386 636.127 278.68 630.352 278.68V278.68Z" fill="#CEC8C8"/>
<path d="M280.125 221.68H652.125V263.907C652.125 269.682 649.831 275.22 645.748 279.303C641.665 283.386 636.127 285.68 630.352 285.68H301.9C296.125 285.68 290.587 283.386 286.504 279.303C282.421 275.22 280.127 269.682 280.127 263.907V221.68H280.125Z" stroke="#2B2F38" stroke-width="6" stroke-linecap="round" stroke-linejoin="round"/>
<path d="M537.125 339.68H395.125C389.602 339.68 385.125 344.157 385.125 349.68C385.125 355.203 389.602 359.68 395.125 359.68H537.125C542.648 359.68 547.125 355.203 547.125 349.68C547.125 344.157 542.648 339.68 537.125 339.68Z" fill="white"/>
<path d="M543.336 352.103H388.914C386.821 352.103 385.125 353.799 385.125 355.891C385.125 357.984 386.821 359.68 388.914 359.68H543.336C545.429 359.68 547.125 357.984 547.125 355.891C547.125 353.799 545.429 352.103 543.336 352.103Z" fill="#CECEC8"/>
<path d="M537.125 339.68H395.125C389.602 339.68 385.125 344.157 385.125 349.68C385.125 355.203 389.602 359.68 395.125 359.68H537.125C542.648 359.68 547.125 355.203 547.125 349.68C547.125 344.157 542.648 339.68 537.125 339.68Z" stroke="#2B2F38" stroke-width="6" stroke-linecap="round" stroke-linejoin="round"/>
<path d="M493.125 312.68C493.125 305.519 495.97 298.652 501.033 293.588C506.097 288.525 512.964 285.68 520.125 285.68H412.125C419.286 285.68 426.153 288.525 431.217 293.588C436.28 298.652 439.125 305.519 439.125 312.68C439.125 319.841 436.28 326.708 431.217 331.772C426.153 336.835 419.286 339.68 412.125 339.68H520.125C512.964 339.68 506.097 336.835 501.033 331.772C495.97 326.708 493.125 319.841 493.125 312.68Z" fill="#CECEC8"/>
<path d="M433.432 296.107H498.818C501.339 292.859 504.569 290.23 508.262 288.423C511.956 286.616 516.013 285.677 520.125 285.68H412.125C416.237 285.677 420.294 286.616 423.988 288.423C427.681 290.23 430.911 292.859 433.432 296.107V296.107Z" fill="#BCBCB8"/>
<path d="M493.633 317.894C492.887 321.685 492.963 325.592 493.858 329.35C494.753 333.109 496.444 336.632 498.818 339.68H520.125C513.869 339.68 507.807 337.508 502.975 333.534C498.143 329.56 494.841 324.032 493.633 317.894V317.894Z" fill="#CECEC8"/>
<path d="M448.678 312.68C448.678 305.519 445.833 298.652 440.77 293.588C435.706 288.525 428.839 285.68 421.678 285.68H412.125C419.286 285.68 426.153 288.525 431.217 293.588C436.28 298.652 439.125 305.519 439.125 312.68C439.125 319.841 436.28 326.708 431.217 331.772C426.153 336.835 419.286 339.68 412.125 339.68H421.678C428.839 339.68 435.706 336.835 440.77 331.772C445.833 326.708 448.678 319.841 448.678 312.68Z" fill="#DDDDDB"/>
<path d="M493.125 312.68C493.125 305.519 495.97 298.652 501.033 293.588C506.097 288.525 512.964 285.68 520.125 285.68H505.25C498.089 285.68 491.222 288.525 486.158 293.588C481.095 298.652 478.25 305.519 478.25 312.68C478.25 319.841 481.095 326.708 486.158 331.772C491.222 336.835 498.089 339.68 505.25 339.68H520.125C512.964 339.68 506.097 336.835 501.033 331.772C495.97 326.708 493.125 319.841 493.125 312.68Z" fill="#BCBCB8"/>
<path d="M493.125 312.68C493.125 305.519 495.97 298.652 501.033 293.588C506.097 288.525 512.964 285.68 520.125 285.68H412.125C419.286 285.68 426.153 288.525 431.217 293.588C436.28 298.652 439.125 305.519 439.125 312.68C439.125 319.841 436.28 326.708 431.217 331.772C426.153 336.835 419.286 339.68 412.125 339.68H520.125C512.964 339.68 506.097 336.835 501.033 331.772C495.97 326.708 493.125 319.841 493.125 312.68Z" stroke="#2B2F38" stroke-width="6" stroke-linecap="round" stroke-linejoin="round"/>
<path d="M480.221 89.649H557.554" stroke="white" stroke-width="6" stroke-linecap="round" stroke-linejoin="round"/>
<path opacity="0.69" d="M480.221 108.589H532.887" stroke="white" stroke-width="6" stroke-linecap="round" stroke-linejoin="round"/>
<path opacity="0.35" d="M480.221 127.529H557.554" stroke="white" stroke-width="6" stroke-linecap="round" stroke-linejoin="round"/>
<path opacity="0.3" d="M471.458 198.186C486.37 198.186 498.458 186.098 498.458 171.186C498.458 156.274 486.37 144.186 471.458 144.186C456.546 144.186 444.458 156.274 444.458 171.186C444.458 186.098 456.546 198.186 471.458 198.186Z" fill="black"/>
<path d="M469.458 196.186C484.37 196.186 496.458 184.098 496.458 169.186C496.458 154.274 484.37 142.186 469.458 142.186C454.546 142.186 442.458 154.274 442.458 169.186C442.458 184.098 454.546 196.186 469.458 196.186Z" fill="#2B2F38"/>
<path d="M464.083 156.525L484.105 168.085C484.298 168.197 484.458 168.357 484.569 168.55C484.681 168.743 484.739 168.962 484.739 169.185C484.739 169.408 484.681 169.627 484.569 169.82C484.458 170.013 484.298 170.173 484.105 170.285L464.083 181.845C463.89 181.957 463.671 182.015 463.448 182.016C463.224 182.016 463.005 181.957 462.812 181.846C462.619 181.734 462.458 181.574 462.346 181.38C462.235 181.187 462.176 180.968 462.176 180.745V157.625C462.176 157.402 462.235 157.183 462.347 156.99C462.459 156.797 462.619 156.637 462.812 156.525C463.006 156.414 463.225 156.355 463.448 156.355C463.671 156.355 463.89 156.414 464.083 156.525V156.525Z" fill="white"/>
<path opacity="0.3" d="M540.131 168.6L529.469 162.445C529.366 162.385 529.249 162.354 529.131 162.354C529.012 162.354 528.895 162.385 528.792 162.444C528.689 162.504 528.604 162.589 528.544 162.692C528.485 162.795 528.454 162.912 528.454 163.031V167.382L519.903 162.445C519.8 162.385 519.683 162.354 519.564 162.354C519.446 162.354 519.329 162.385 519.226 162.445C519.123 162.504 519.037 162.589 518.978 162.692C518.918 162.795 518.887 162.912 518.887 163.031V175.342C518.887 175.461 518.919 175.577 518.978 175.68C519.038 175.783 519.123 175.868 519.226 175.928C519.329 175.987 519.446 176.018 519.565 176.018C519.683 176.018 519.8 175.987 519.903 175.928L528.454 170.991V175.342C528.454 175.461 528.485 175.577 528.545 175.68C528.604 175.783 528.69 175.868 528.792 175.928C528.895 175.987 529.012 176.018 529.131 176.018C529.249 176.018 529.366 175.987 529.469 175.928L540.131 169.773C540.234 169.713 540.319 169.628 540.378 169.525C540.438 169.422 540.469 169.305 540.469 169.186C540.469 169.068 540.438 168.951 540.378 168.848C540.319 168.745 540.234 168.66 540.131 168.6V168.6Z" fill="black"/>
<path opacity="0.3" d="M397.956 168.6L408.617 162.445C408.72 162.385 408.837 162.354 408.955 162.354C409.074 162.354 409.191 162.385 409.294 162.444C409.397 162.504 409.482 162.589 409.542 162.692C409.601 162.795 409.632 162.912 409.632 163.031V167.382L418.184 162.445C418.287 162.385 418.404 162.354 418.522 162.354C418.641 162.354 418.758 162.385 418.861 162.444C418.964 162.504 419.049 162.589 419.109 162.692C419.168 162.795 419.199 162.912 419.199 163.031V175.342C419.199 175.461 419.168 175.577 419.108 175.68C419.049 175.783 418.963 175.868 418.861 175.928C418.758 175.987 418.641 176.018 418.522 176.018C418.404 176.018 418.287 175.987 418.184 175.928L409.632 170.991V175.342C409.632 175.461 409.601 175.577 409.541 175.68C409.482 175.783 409.396 175.868 409.293 175.928C409.191 175.987 409.074 176.018 408.955 176.018C408.837 176.018 408.72 175.987 408.617 175.928L397.956 169.773C397.853 169.714 397.767 169.628 397.708 169.525C397.648 169.422 397.617 169.305 397.617 169.186C397.617 169.068 397.648 168.951 397.708 168.848C397.767 168.745 397.853 168.659 397.956 168.6V168.6Z" fill="black"/>
<path d="M225.021 162.381H151.021C141.08 162.381 133.021 170.44 133.021 180.381V332.381C133.021 342.322 141.08 350.381 151.021 350.381H225.021C234.962 350.381 243.021 342.322 243.021 332.381V180.381C243.021 170.44 234.962 162.381 225.021 162.381Z" fill="#D3B894"/>
<path d="M225.021 162.381H151.021C141.08 162.381 133.021 170.44 133.021 180.381V332.381C133.021 342.322 141.08 350.381 151.021 350.381H225.021C234.962 350.381 243.021 342.322 243.021 332.381V180.381C243.021 170.44 234.962 162.381 225.021 162.381Z" fill="#B78B6E"/>
<path d="M144.021 332.381V180.381C144.021 175.607 145.917 171.029 149.293 167.653C152.669 164.277 157.247 162.381 162.021 162.381H151.021C146.247 162.381 141.669 164.277 138.293 167.653C134.917 171.029 133.021 175.607 133.021 180.381V332.381C133.021 337.155 134.917 341.733 138.293 345.109C141.669 348.485 146.247 350.381 151.021 350.381H162.021C157.247 350.381 152.669 348.485 149.293 345.109C145.917 341.733 144.021 337.155 144.021 332.381Z" fill="#A3775F"/>
<path d="M225.021 162.381H213.021C217.795 162.381 222.373 164.277 225.749 167.653C229.125 171.029 231.021 175.607 231.021 180.381V332.381C231.021 337.155 229.125 341.733 225.749 345.109C222.373 348.485 217.795 350.381 213.021 350.381H225.021C229.795 350.381 234.373 348.485 237.749 345.109C241.125 341.733 243.021 337.155 243.021 332.381V180.381C243.021 175.607 241.125 171.029 237.749 167.653C234.373 164.277 229.795 162.381 225.021 162.381Z" fill="#A3775F"/>
<path d="M225.021 344.381H151.021C146.247 344.381 141.669 342.485 138.293 339.109C134.917 335.733 133.021 331.155 133.021 326.381V332.381C133.021 337.155 134.917 341.733 138.293 345.109C141.669 348.485 146.247 350.381 151.021 350.381H225.021C229.795 350.381 234.373 348.485 237.749 345.109C241.125 341.733 243.021 337.155 243.021 332.381V326.381C243.021 331.155 241.125 335.733 237.749 339.109C234.373 342.485 229.795 344.381 225.021 344.381Z" fill="#936C5C"/>
<path d="M225.021 162.381H151.021C146.247 162.381 141.669 164.277 138.293 167.653C134.917 171.029 133.021 175.607 133.021 180.381V186.186C133.021 181.412 134.917 176.834 138.293 173.458C141.669 170.082 146.247 168.186 151.021 168.186H225.021C229.795 168.186 234.373 170.082 237.749 173.458C241.125 176.834 243.021 181.412 243.021 186.186V180.381C243.021 175.607 241.125 171.029 237.749 167.653C234.373 164.277 229.795 162.381 225.021 162.381Z" fill="#CEA895"/>
<path d="M225.021 162.381H151.021C141.08 162.381 133.021 170.44 133.021 180.381V332.381C133.021 342.322 141.08 350.381 151.021 350.381H225.021C234.962 350.381 243.021 342.322 243.021 332.381V180.381C243.021 170.44 234.962 162.381 225.021 162.381Z" stroke="#2B2F38" stroke-width="6" stroke-linecap="round" stroke-linejoin="round"/>
<path d="M152.071 187.776C155.463 187.776 158.212 185.027 158.212 181.635C158.212 178.243 155.463 175.494 152.071 175.494C148.679 175.494 145.93 178.243 145.93 181.635C145.93 185.027 148.679 187.776 152.071 187.776Z" fill="#2B2F38"/>
<path d="M223.97 187.776C227.362 187.776 230.111 185.027 230.111 181.635C230.111 178.243 227.362 175.494 223.97 175.494C220.578 175.494 217.829 178.243 217.829 181.635C217.829 185.027 220.578 187.776 223.97 187.776Z" fill="#2B2F38"/>
<path d="M152.839 339.251C156.231 339.251 158.98 336.502 158.98 333.11C158.98 329.718 156.231 326.969 152.839 326.969C149.447 326.969 146.698 329.718 146.698 333.11C146.698 336.502 149.447 339.251 152.839 339.251Z" fill="#2B2F38"/>
<path d="M224.738 339.251C228.13 339.251 230.879 336.502 230.879 333.11C230.879 329.718 228.13 326.969 224.738 326.969C221.346 326.969 218.597 329.718 218.597 333.11C218.597 336.502 221.346 339.251 224.738 339.251Z" fill="#2B2F38"/>
<path d="M188.788 246.696C203.7 246.696 215.788 234.608 215.788 219.696C215.788 204.784 203.7 192.696 188.788 192.696C173.876 192.696 161.788 204.784 161.788 219.696C161.788 234.608 173.876 246.696 188.788 246.696Z" fill="#2B2F38"/>
<path opacity="0.28" d="M188.788 248.696C204.804 248.696 217.788 235.712 217.788 219.696C217.788 203.68 204.804 190.696 188.788 190.696C172.772 190.696 159.788 203.68 159.788 219.696C159.788 235.712 172.772 248.696 188.788 248.696Z" stroke="black" stroke-miterlimit="10"/>
<path d="M188.788 239.696C199.834 239.696 208.788 230.742 208.788 219.696C208.788 208.65 199.834 199.696 188.788 199.696C177.742 199.696 168.788 208.65 168.788 219.696C168.788 230.742 177.742 239.696 188.788 239.696Z" fill="#FAFBDB"/>
<path opacity="0.28" d="M188.021 323.368C206.246 323.368 221.021 308.593 221.021 290.368C221.021 272.143 206.246 257.368 188.021 257.368C169.796 257.368 155.021 272.143 155.021 290.368C155.021 308.593 169.796 323.368 188.021 323.368Z" stroke="black" stroke-miterlimit="10"/>
<path d="M188.021 321.368C205.142 321.368 219.021 307.489 219.021 290.368C219.021 273.247 205.142 259.368 188.021 259.368C170.9 259.368 157.021 273.247 157.021 290.368C157.021 307.489 170.9 321.368 188.021 321.368Z" fill="#2B2F38"/>
<path d="M188.021 316.368C202.38 316.368 214.021 304.727 214.021 290.368C214.021 276.009 202.38 264.368 188.021 264.368C173.662 264.368 162.021 276.009 162.021 290.368C162.021 304.727 173.662 316.368 188.021 316.368Z" fill="#FAFBDB"/>
<path d="M188.021 302.368C194.648 302.368 200.021 296.995 200.021 290.368C200.021 283.741 194.648 278.368 188.021 278.368C181.394 278.368 176.021 283.741 176.021 290.368C176.021 296.995 181.394 302.368 188.021 302.368Z" fill="#2B2F38"/>
<path d="M188.788 227.696C193.206 227.696 196.788 224.114 196.788 219.696C196.788 215.278 193.206 211.696 188.788 211.696C184.37 211.696 180.788 215.278 180.788 219.696C180.788 224.114 184.37 227.696 188.788 227.696Z" fill="#2B2F38"/>
<path d="M465.25 264.928C472.982 264.928 479.25 258.66 479.25 250.928C479.25 243.196 472.982 236.928 465.25 236.928C457.518 236.928 451.25 243.196 451.25 250.928C451.25 258.66 457.518 264.928 465.25 264.928Z" fill="#C4C4BF"/>
<path d="M465.25 264.928C472.982 264.928 479.25 258.66 479.25 250.928C479.25 243.196 472.982 236.928 465.25 236.928C457.518 236.928 451.25 243.196 451.25 250.928C451.25 258.66 457.518 264.928 465.25 264.928Z" stroke="#2B2F38" stroke-width="4" stroke-linecap="round" stroke-linejoin="round"/>
<path d="M173.436 351.633H151.815V359.633H173.436V351.633Z" fill="#2B2F38"/>
<path d="M225.762 351.633H204.141V359.633H225.762V351.633Z" fill="#2B2F38"/>
<path d="M787.076 162.381H713.076C703.135 162.381 695.076 170.44 695.076 180.381V332.381C695.076 342.322 703.135 350.381 713.076 350.381H787.076C797.017 350.381 805.076 342.322 805.076 332.381V180.381C805.076 170.44 797.017 162.381 787.076 162.381Z" fill="#D3B894"/>
<path d="M787.076 162.381H713.076C703.135 162.381 695.076 170.44 695.076 180.381V332.381C695.076 342.322 703.135 350.381 713.076 350.381H787.076C797.017 350.381 805.076 342.322 805.076 332.381V180.381C805.076 170.44 797.017 162.381 787.076 162.381Z" fill="#B78B6E"/>
<path d="M706.076 332.381V180.381C706.076 175.607 707.972 171.029 711.348 167.653C714.724 164.277 719.302 162.381 724.076 162.381H713.076C708.302 162.381 703.724 164.277 700.348 167.653C696.972 171.029 695.076 175.607 695.076 180.381V332.381C695.076 337.155 696.972 341.733 700.348 345.109C703.724 348.485 708.302 350.381 713.076 350.381H724.076C719.302 350.381 714.724 348.485 711.348 345.109C707.972 341.733 706.076 337.155 706.076 332.381Z" fill="#A3775F"/>
<path d="M787.076 162.381H775.076C779.85 162.381 784.428 164.277 787.804 167.653C791.18 171.029 793.076 175.607 793.076 180.381V332.381C793.076 337.155 791.18 341.733 787.804 345.109C784.428 348.485 779.85 350.381 775.076 350.381H787.076C791.85 350.381 796.428 348.485 799.804 345.109C803.18 341.733 805.076 337.155 805.076 332.381V180.381C805.076 175.607 803.18 171.029 799.804 167.653C796.428 164.277 791.85 162.381 787.076 162.381Z" fill="#A3775F"/>
<path d="M787.076 344.381H713.076C708.302 344.381 703.724 342.485 700.348 339.109C696.972 335.733 695.076 331.155 695.076 326.381V332.381C695.076 337.155 696.972 341.733 700.348 345.109C703.724 348.485 708.302 350.381 713.076 350.381H787.076C791.85 350.381 796.428 348.485 799.804 345.109C803.18 341.733 805.076 337.155 805.076 332.381V326.381C805.076 331.155 803.18 335.733 799.804 339.109C796.428 342.485 791.85 344.381 787.076 344.381Z" fill="#936C5C"/>
<path d="M787.076 162.381H713.076C708.302 162.381 703.724 164.277 700.348 167.653C696.972 171.029 695.076 175.607 695.076 180.381V186.186C695.076 181.412 696.972 176.834 700.348 173.458C703.724 170.082 708.302 168.186 713.076 168.186H787.076C791.85 168.186 796.428 170.082 799.804 173.458C803.18 176.834 805.076 181.412 805.076 186.186V180.381C805.076 175.607 803.18 171.029 799.804 167.653C796.428 164.277 791.85 162.381 787.076 162.381Z" fill="#CEA895"/>
<path d="M787.076 162.381H713.076C703.135 162.381 695.076 170.44 695.076 180.381V332.381C695.076 342.322 703.135 350.381 713.076 350.381H787.076C797.017 350.381 805.076 342.322 805.076 332.381V180.381C805.076 170.44 797.017 162.381 787.076 162.381Z" stroke="#2B2F38" stroke-width="6" stroke-linecap="round" stroke-linejoin="round"/>
<path d="M714.126 187.776C717.518 187.776 720.267 185.027 720.267 181.635C720.267 178.243 717.518 175.494 714.126 175.494C710.734 175.494 707.985 178.243 707.985 181.635C707.985 185.027 710.734 187.776 714.126 187.776Z" fill="#2B2F38"/>
<path d="M786.025 187.776C789.417 187.776 792.166 185.027 792.166 181.635C792.166 178.243 789.417 175.494 786.025 175.494C782.633 175.494 779.884 178.243 779.884 181.635C779.884 185.027 782.633 187.776 786.025 187.776Z" fill="#2B2F38"/>
<path d="M714.894 339.251C718.286 339.251 721.035 336.502 721.035 333.11C721.035 329.718 718.286 326.969 714.894 326.969C711.502 326.969 708.753 329.718 708.753 333.11C708.753 336.502 711.502 339.251 714.894 339.251Z" fill="#2B2F38"/>
<path d="M786.793 339.251C790.185 339.251 792.934 336.502 792.934 333.11C792.934 329.718 790.185 326.969 786.793 326.969C783.401 326.969 780.652 329.718 780.652 333.11C780.652 336.502 783.401 339.251 786.793 339.251Z" fill="#2B2F38"/>
<path d="M750.843 246.696C765.755 246.696 777.843 234.608 777.843 219.696C777.843 204.784 765.755 192.696 750.843 192.696C735.931 192.696 723.843 204.784 723.843 219.696C723.843 234.608 735.931 246.696 750.843 246.696Z" fill="#2B2F38"/>
<path opacity="0.28" d="M750.843 248.696C766.859 248.696 779.843 235.712 779.843 219.696C779.843 203.68 766.859 190.696 750.843 190.696C734.827 190.696 721.843 203.68 721.843 219.696C721.843 235.712 734.827 248.696 750.843 248.696Z" stroke="black" stroke-miterlimit="10"/>
<path d="M750.843 239.696C761.889 239.696 770.843 230.742 770.843 219.696C770.843 208.65 761.889 199.696 750.843 199.696C739.797 199.696 730.843 208.65 730.843 219.696C730.843 230.742 739.797 239.696 750.843 239.696Z" fill="#FAFBDB"/>
<path opacity="0.28" d="M750.076 323.368C768.301 323.368 783.076 308.593 783.076 290.368C783.076 272.143 768.301 257.368 750.076 257.368C731.851 257.368 717.076 272.143 717.076 290.368C717.076 308.593 731.851 323.368 750.076 323.368Z" stroke="black" stroke-miterlimit="10"/>
<path d="M750.076 321.368C767.197 321.368 781.076 307.489 781.076 290.368C781.076 273.247 767.197 259.368 750.076 259.368C732.955 259.368 719.076 273.247 719.076 290.368C719.076 307.489 732.955 321.368 750.076 321.368Z" fill="#2B2F38"/>
<path d="M750.076 316.368C764.435 316.368 776.076 304.727 776.076 290.368C776.076 276.009 764.435 264.368 750.076 264.368C735.717 264.368 724.076 276.009 724.076 290.368C724.076 304.727 735.717 316.368 750.076 316.368Z" fill="#FAFBDB"/>
<path d="M750.076 302.368C756.703 302.368 762.076 296.995 762.076 290.368C762.076 283.741 756.703 278.368 750.076 278.368C743.449 278.368 738.076 283.741 738.076 290.368C738.076 296.995 743.449 302.368 750.076 302.368Z" fill="#2B2F38"/>
<path d="M750.843 227.696C755.261 227.696 758.843 224.114 758.843 219.696C758.843 215.278 755.261 211.696 750.843 211.696C746.425 211.696 742.843 215.278 742.843 219.696C742.843 224.114 746.425 227.696 750.843 227.696Z" fill="#2B2F38"/>
<path d="M735.491 351.633H713.87V359.633H735.491V351.633Z" fill="#2B2F38"/>
<path d="M787.816 351.633H766.195V359.633H787.816V351.633Z" fill="#2B2F38"/>
<path d="M412.741 86.587C411.942 86.7207 411.216 87.1335 410.692 87.752C410.168 88.3705 409.881 89.1546 409.881 89.965V114.779C409.876 115.948 409.439 117.073 408.653 117.939C407.868 118.804 406.79 119.348 405.627 119.465C404.78 119.559 403.943 119.729 403.127 119.974C397.643 121.615 394.169 126.194 395.368 130.202C396.567 134.21 401.985 136.129 407.468 134.488C412.199 133.073 415.431 129.471 415.461 125.935V99.891C415.461 99.6437 415.544 99.4035 415.696 99.2084C415.848 99.0134 416.06 98.8745 416.3 98.814L436.306 93.791C436.47 93.75 436.64 93.7468 436.806 93.7816C436.971 93.8165 437.125 93.8886 437.259 93.9923C437.392 94.096 437.499 94.2287 437.573 94.3803C437.647 94.5318 437.686 94.6983 437.686 94.867V109.2C437.681 110.369 437.244 111.494 436.459 112.359C435.673 113.225 434.596 113.768 433.433 113.886C432.586 113.979 431.749 114.149 430.933 114.395C425.448 116.036 421.974 120.615 423.173 124.623C424.372 128.631 429.79 130.549 435.273 128.909C440.004 127.493 443.236 123.892 443.266 120.356V85.528C443.266 85.0306 443.158 84.5391 442.948 84.0878C442.739 83.6365 442.434 83.2362 442.054 82.9148C441.675 82.5933 441.23 82.3585 440.75 82.2266C440.27 82.0947 439.768 82.0689 439.277 82.151L412.741 86.587Z" fill="white"/>
<path opacity="0.21" d="M366.875 54.944C369.084 54.944 370.875 53.1531 370.875 50.944C370.875 48.7349 369.084 46.944 366.875 46.944C364.666 46.944 362.875 48.7349 362.875 50.944C362.875 53.1531 364.666 54.944 366.875 54.944Z" fill="black"/>
<path opacity="0.21" d="M380.375 54.944C382.584 54.944 384.375 53.1531 384.375 50.944C384.375 48.7349 382.584 46.944 380.375 46.944C378.166 46.944 376.375 48.7349 376.375 50.944C376.375 53.1531 378.166 54.944 380.375 54.944Z" fill="black"/>
<path opacity="0.21" d="M393.875 54.944C396.084 54.944 397.875 53.1531 397.875 50.944C397.875 48.7349 396.084 46.944 393.875 46.944C391.666 46.944 389.875 48.7349 389.875 50.944C389.875 53.1531 391.666 54.944 393.875 54.944Z" fill="black"/>
<path d="M835.571 359.886H865.5" stroke="#283035" stroke-width="6" stroke-linecap="round" stroke-linejoin="round"/>
<path d="M652.58 359.886H820.572" stroke="#283035" stroke-width="6" stroke-linecap="round" stroke-linejoin="round"/>
<path d="M330 359.886H636.081" stroke="#283035" stroke-width="6" stroke-linecap="round" stroke-linejoin="round"/>
<path d="M309.5 359.886H320.5" stroke="#283035" stroke-width="6" stroke-linecap="round" stroke-linejoin="round"/>
<path d="M123 359.886H297.663" stroke="#283035" stroke-width="6" stroke-linecap="round" stroke-linejoin="round"/>
<path d="M26 359.886H109" stroke="#283035" stroke-width="6" stroke-linecap="round" stroke-linejoin="round"/>
<path d="M3.66699 359.886H15" stroke="#283035" stroke-width="6" stroke-linecap="round" stroke-linejoin="round"/>
<g opacity="0.77">
<path opacity="0.77" d="M77.154 203.242C73.019 189.683 73.225 181.167 73.225 181.167C73.4439 179.693 73.8259 178.247 74.364 176.857H49.371C49.9091 178.247 50.2911 179.693 50.51 181.167C50.51 181.167 50.716 189.683 46.581 203.242C41.956 218.408 31.154 239.017 31.27 252.983C31.362 264.046 37.57 290.153 36.701 313.028C35.835 335.873 31.268 331.893 31.321 342.734C31.333 345.245 33.921 349.934 33.921 351.947C33.921 354.102 43.997 355.847 61.241 355.847C61.459 355.847 61.674 355.847 61.891 355.847C61.891 355.847 62.298 355.847 62.516 355.847C79.76 355.847 89.81 354.101 89.81 351.947C89.81 349.937 92.4 345.247 92.41 342.734C92.463 331.893 87.896 335.873 87.03 313.028C86.163 290.153 92.368 264.046 92.461 252.983C92.581 239.017 81.779 218.408 77.154 203.242Z" fill="#FAFBDB"/>
</g>
<path d="M94.416 252.983C94.494 244.244 89.994 232.904 85.401 221.924C84.423 219.569 66.827 203.612 65.471 214.979C57.062 204.413 50.879 207.966 47.986 207.966C46.6644 207.934 45.3673 208.326 44.2839 209.083C43.2006 209.841 42.3877 210.925 41.964 212.177C36.443 225.841 28.784 241.616 28.885 252.998C28.985 264.061 35.63 290.16 34.701 313.036C33.773 335.88 29.534 331.896 29.59 342.736C29.603 345.246 32.73 350.475 32.73 352.485C32.73 354.64 42.452 356.55 60.918 356.55C61.151 356.55 89.864 356.55 91.576 351.89C92.269 350.004 94.349 345.215 94.362 342.705C94.418 331.863 89.528 335.857 88.6 313.013C87.672 290.14 94.317 264.046 94.416 252.983Z" fill="#D64351"/>
<path d="M77.154 203.242C73.019 189.683 73.225 181.167 73.225 181.167C73.4439 179.693 73.8259 178.247 74.364 176.857H49.371C49.9091 178.247 50.2911 179.693 50.51 181.167C50.51 181.167 50.716 189.683 46.581 203.242C41.956 218.408 31.154 239.017 31.27 252.983C31.362 264.046 37.57 290.153 36.701 313.028C35.835 335.873 31.268 331.893 31.321 342.734C31.333 345.245 33.921 349.934 33.921 351.947C33.921 354.102 43.997 355.847 61.241 355.847C61.459 355.847 61.674 355.847 61.891 355.847C61.891 355.847 62.298 355.847 62.516 355.847C79.76 355.847 89.81 354.101 89.81 351.947C89.81 349.937 92.4 345.247 92.41 342.734C92.463 331.893 87.896 335.873 87.03 313.028C86.163 290.153 92.368 264.046 92.461 252.983C92.581 239.017 81.779 218.408 77.154 203.242Z" fill="#D64351"/>
<path d="M94.416 252.983C94.494 244.244 89.994 232.904 85.401 221.924C84.423 219.569 66.827 203.612 65.471 214.979C57.062 204.413 50.879 207.966 47.986 207.966C46.6644 207.934 45.3673 208.326 44.2839 209.083C43.2006 209.841 42.3877 210.925 41.964 212.177C36.443 225.841 28.784 241.616 28.885 252.998C28.985 264.061 35.63 290.16 34.701 313.036C33.773 335.88 29.534 331.896 29.59 342.736C29.603 345.246 32.73 350.475 32.73 352.485C32.73 354.64 42.452 356.55 60.918 356.55C61.151 356.55 89.864 356.55 91.576 351.89C92.269 350.004 94.349 345.215 94.362 342.705C94.418 331.863 89.528 335.857 88.6 313.013C87.672 290.14 94.317 264.046 94.416 252.983Z" fill="#D64351"/>
<path d="M77.154 203.242C73.019 189.683 73.225 181.167 73.225 181.167C73.4439 179.693 73.8259 178.247 74.364 176.857H49.371C49.9091 178.247 50.2911 179.693 50.51 181.167C50.51 181.167 50.716 189.683 46.581 203.242C41.956 218.408 31.154 239.017 31.27 252.983C31.362 264.046 37.57 290.153 36.701 313.028C35.835 335.873 31.268 331.893 31.321 342.734C31.333 345.245 33.921 349.934 33.921 351.947C33.921 354.102 43.997 355.847 61.241 355.847C61.459 355.847 61.674 355.847 61.891 355.847C61.891 355.847 62.298 355.847 62.516 355.847C79.76 355.847 89.81 354.101 89.81 351.947C89.81 349.937 92.4 345.247 92.41 342.734C92.463 331.893 87.896 335.873 87.03 313.028C86.163 290.153 92.368 264.046 92.461 252.983C92.581 239.017 81.779 218.408 77.154 203.242Z" fill="#D64351"/>
<path d="M96.5 252.914C96.578 244.175 92.078 232.835 87.485 221.855C86.576 219.667 80.748 200.249 77.498 207.391C82.378 210.216 77.555 213.753 78.064 214.979C82.657 225.959 87.578 244.179 87.5 252.914C87.4 263.977 80.755 290.07 81.684 312.945C82.612 335.79 87.502 331.796 87.445 342.637C87.432 345.148 85.352 349.937 84.659 351.823C83.332 355.435 65.788 356.247 57.854 356.429C59.4873 356.464 61.203 356.482 63.001 356.483C63.235 356.483 91.947 356.483 93.659 351.823C94.352 349.936 96.432 345.148 96.445 342.637C96.502 331.796 91.612 335.79 90.684 312.945C89.757 290.07 96.4 263.977 96.5 252.914Z" fill="#C93D51"/>
<path d="M74.364 176.857C73.8259 178.247 73.4439 179.693 73.225 181.167C73.225 181.167 73.019 189.683 77.154 203.242C81.779 218.408 92.581 239.017 92.465 252.984C92.372 264.046 86.165 290.153 87.034 313.028C87.9 335.873 92.467 331.893 92.414 342.734C92.402 345.245 89.814 349.934 89.814 351.947C89.814 354.102 79.764 355.847 62.52 355.847C62.302 355.847 61.895 355.847 61.895 355.847C61.678 355.847 61.463 355.847 61.245 355.847C44.001 355.847 33.925 354.101 33.925 351.947C33.925 349.937 31.335 345.247 31.325 342.734C31.272 331.893 35.839 335.873 36.705 313.028C37.572 290.153 31.367 264.046 31.274 252.984C31.158 239.017 41.96 218.408 46.585 203.242C50.72 189.683 50.514 181.167 50.514 181.167C50.2951 179.693 49.9131 178.247 49.375 176.857H74.368H74.364ZM74.368 170.857H49.368C48.3953 170.857 47.4373 171.094 46.5764 171.547C45.7156 171.999 44.9777 172.655 44.4263 173.456C43.875 174.257 43.5267 175.181 43.4115 176.146C43.2963 177.112 43.4176 178.091 43.765 179C44.0957 179.854 44.3448 180.738 44.509 181.639C44.48 183.23 44.161 190.616 40.842 201.497C39.397 206.235 37.296 211.597 35.071 217.266C30.209 229.666 25.182 242.481 25.271 253.039C25.308 257.587 26.239 264.109 27.318 271.661C29.059 283.861 31.227 299.048 30.705 312.806C30.244 324.964 28.745 328.606 27.541 331.536C25.9443 335.059 25.1845 338.903 25.321 342.768C25.5003 345.233 26.1048 347.649 27.108 349.908C27.391 350.664 27.808 351.781 27.93 352.275C28.019 354.167 28.94 357.275 33.613 359.075C35.7538 359.83 37.9684 360.357 40.22 360.647C47.1904 361.545 54.2156 361.949 61.243 361.857H61.643H61.882H62.515C69.5384 361.949 76.5596 361.545 83.526 360.647C85.7755 360.357 87.9878 359.83 90.126 359.073C94.793 357.273 95.712 354.173 95.801 352.279C95.922 351.785 96.34 350.668 96.622 349.912C97.6259 347.653 98.2308 345.237 98.41 342.772C98.5465 338.907 97.7867 335.063 96.19 331.54C94.99 328.612 93.49 324.968 93.026 312.81C92.504 299.052 94.672 283.867 96.413 271.665C97.492 264.113 98.423 257.591 98.461 253.043C98.548 242.485 93.522 229.667 88.661 217.27C86.436 211.598 84.335 206.24 82.89 201.501C79.581 190.65 79.254 183.276 79.223 181.64C79.3766 180.798 79.6049 179.971 79.905 179.17C80.2833 178.259 80.4309 177.268 80.3348 176.286C80.2387 175.304 79.9018 174.36 79.3541 173.539C78.8063 172.719 78.0645 172.046 77.1944 171.58C76.3243 171.114 75.3528 170.87 74.366 170.87L74.368 170.857Z" fill="#2B2F38"/>
<path d="M40.407 333.421C39.0136 336.321 38.3507 339.519 38.476 342.734" stroke="white" stroke-width="4" stroke-linecap="round" stroke-linejoin="round"/>
<path d="M43.029 327.226C42.8535 327.714 42.636 328.185 42.379 328.635" stroke="white" stroke-width="4" stroke-linecap="round" stroke-linejoin="round"/>
<path d="M40.4 240.381C39.6739 242.849 39.085 245.356 38.636 247.889" stroke="white" stroke-width="4" stroke-linecap="round" stroke-linejoin="round"/>
<path d="M49.558 214.979C47.149 221.207 44.467 227.772 42.338 234.088" stroke="white" stroke-width="4" stroke-linecap="round" stroke-linejoin="round"/>
<g opacity="0.4">
<path opacity="0.4" d="M90.264 349.9C90.1595 350.085 90.0103 350.241 89.83 350.354C89.0352 350.799 88.179 351.124 87.289 351.319C82.968 352.496 74.189 353.249 61.895 353.249C61.668 353.249 61.244 353.249 61.244 353.249C61.018 353.249 60.793 353.249 60.566 353.249C46.736 353.249 37.335 352.215 33.731 350.757C33.8425 351.146 33.907 351.546 33.923 351.95C33.923 354.105 43.999 355.85 61.243 355.85C61.461 355.85 61.676 355.85 61.893 355.85C61.893 355.85 62.3 355.85 62.518 355.85C79.762 355.85 89.812 354.104 89.812 351.95C89.8153 351.54 89.8735 351.132 89.985 350.737C90.0498 350.449 90.1433 350.169 90.264 349.9V349.9Z" fill="white"/>
</g>
<path opacity="0.6" d="M68.723 284.837C69.2621 284.837 69.699 284.4 69.699 283.861C69.699 283.322 69.2621 282.885 68.723 282.885C68.184 282.885 67.747 283.322 67.747 283.861C67.747 284.4 68.184 284.837 68.723 284.837Z" fill="white"/>
<path opacity="0.6" d="M78.48 339.151C79.1985 339.151 79.781 338.568 79.781 337.85C79.781 337.131 79.1985 336.549 78.48 336.549C77.7615 336.549 77.179 337.131 77.179 337.85C77.179 338.568 77.7615 339.151 78.48 339.151Z" fill="white"/>
<path opacity="0.6" d="M71.976 301.099C72.515 301.099 72.952 300.662 72.952 300.123C72.952 299.584 72.515 299.147 71.976 299.147C71.437 299.147 71 299.584 71 300.123C71 300.662 71.437 301.099 71.976 301.099Z" fill="#B71C1C"/>
<path opacity="0.6" d="M58.316 301.749C58.855 301.749 59.292 301.312 59.292 300.773C59.292 300.234 58.855 299.797 58.316 299.797C57.777 299.797 57.34 300.234 57.34 300.773C57.34 301.312 57.777 301.749 58.316 301.749Z" fill="#B71C1C"/>
<path opacity="0.6" d="M65.471 313.783C66.1895 313.783 66.772 313.201 66.772 312.482C66.772 311.763 66.1895 311.181 65.471 311.181C64.7525 311.181 64.17 311.763 64.17 312.482C64.17 313.201 64.7525 313.783 65.471 313.783Z" fill="#B71C1C"/>
<path opacity="0.6" d="M54.413 339.151C55.1315 339.151 55.714 338.568 55.714 337.85C55.714 337.131 55.1315 336.549 54.413 336.549C53.6945 336.549 53.112 337.131 53.112 337.85C53.112 338.568 53.6945 339.151 54.413 339.151Z" fill="#B71C1C"/>
<path d="M75.375 166.539H48.619C46.1857 166.539 44.213 168.512 44.213 170.945V171.864C44.213 174.297 46.1857 176.27 48.619 176.27H75.375C77.8084 176.27 79.781 174.297 79.781 171.864V170.945C79.781 168.512 77.8084 166.539 75.375 166.539Z" fill="#FAFBDB"/>
<path d="M75.375 166.539H48.619C46.1857 166.539 44.213 168.512 44.213 170.945V171.864C44.213 174.297 46.1857 176.27 48.619 176.27H75.375C77.8084 176.27 79.781 174.297 79.781 171.864V170.945C79.781 168.512 77.8084 166.539 75.375 166.539Z" stroke="#2B2F38" stroke-width="6" stroke-linecap="round" stroke-linejoin="round"/>
<path d="M67.648 270.454C68.203 270.453 68.7477 270.604 69.2236 270.889C69.6995 271.175 70.0887 271.584 70.3493 272.074C70.6099 272.564 70.7321 273.116 70.7028 273.67C70.6735 274.224 70.4938 274.76 70.183 275.22C69.4078 276.353 68.3681 277.28 67.1539 277.92C65.9397 278.561 64.5877 278.895 63.215 278.895C61.8423 278.895 60.4902 278.561 59.2761 277.92C58.0619 277.28 57.0222 276.353 56.247 275.22C55.9362 274.76 55.7565 274.224 55.7272 273.67C55.6979 273.116 55.8201 272.564 56.0807 272.074C56.3413 271.584 56.7305 271.175 57.2064 270.889C57.6823 270.604 58.227 270.453 58.782 270.454H67.648Z" fill="#283035"/>
<path d="M65.726 274.675C66.0173 274.641 66.3121 274.692 66.5754 274.821C66.8386 274.951 67.0591 275.153 67.2104 275.404C67.3618 275.655 67.4378 275.945 67.4292 276.238C67.4206 276.531 67.3279 276.815 67.162 277.057C66.678 277.633 66.0738 278.095 65.392 278.413C64.7102 278.73 63.9671 278.895 63.215 278.895C62.4629 278.895 61.7199 278.73 61.038 278.413C60.3562 278.095 59.7521 277.633 59.268 277.057C59.1022 276.815 59.0094 276.531 59.0008 276.238C58.9923 275.945 59.0682 275.655 59.2196 275.404C59.371 275.153 59.5914 274.951 59.8547 274.821C60.1179 274.692 60.4127 274.641 60.704 274.675H65.726Z" fill="#FFAA47"/>
<path d="M57.34 186.186C56.4043 189.607 55.8588 193.123 55.714 196.667" stroke="white" stroke-width="4" stroke-linecap="round" stroke-linejoin="round"/>
<path d="M74.209 270.352C76.1376 270.352 77.701 268.789 77.701 266.86C77.701 264.931 76.1376 263.368 74.209 263.368C72.2804 263.368 70.717 264.931 70.717 266.86C70.717 268.789 72.2804 270.352 74.209 270.352Z" fill="#283035"/>
<path d="M49.558 270.352C51.4866 270.352 53.05 268.789 53.05 266.86C53.05 264.931 51.4866 263.368 49.558 263.368C47.6294 263.368 46.066 264.931 46.066 266.86C46.066 268.789 47.6294 270.352 49.558 270.352Z" fill="#283035"/>
</svg>
